============== For More Exclusives Visit BollyTorrent.com ================

Remember to register FREE at [url]http://www.BollyTorrent.com/register.php[/url] to avail more exclusives like this one. For time being BollyTorrent.com is completely FreeLeech Forum. So hurry up......!!!!

[CENTER]

[IMG]http://img197.imageshack.us/img197/150/65883099.png[/IMG]

[B][COLOR="navy"]Murder 2 - 2011 - 720p - BluRay - x264 - ac3 - ErSSP (DUS)[/COLOR][/B]
[img]http://www.imagehost.co.za/image-F018_4E6F30F9.jpg[/img]

[B][COLOR="red"]Movie Info[/COLOR][/B]
[/CENTER]
[QUOTE]
[U][B]Storyline[/B][/U]

Orphaned at a young age, former officer with Goa Police, Arjun Vishnu Bhaagwat, now lives alone, though he has a sweetheart in gorgeous model, Priya. Amidst reports of police extending their search for missing prostitutes, specifically the Caucasian daughter of a high-profile Russian Diplomat, Arjun is hired by a gangster, Sameer, and for a fee, must not only locate missing call-girls but also their abductor. Unable to get any clues, he than enlists the assistance of Sameer to recruit a bait, Reshma, who comes from an impoverished family, for the killer. Shortly thereafter Reshma goes missing, and Arjun loses contact with her. Guilt-ridden, he decides to use all possible resources to try and locate her before she herself becomes included in the official 'missing persons' list. 

[B]Director:[/B] Mohit Suri
[B]Writers:[/B] Mahesh Bhatt, Shagufta Rafique
[B]Stars:[/B] Jaqueline Fernandes, Yana Gupta and Emraan Hashmi  Jaqueline Fernandes, Yana Gupta and Emraan Hashmi 

[B]IMDB:[/B] [url=http://www.imdb.com/title/tt1918965/]Murder 2 (2011) - IMDb[/url]
[/QUOTE]

[CENTER]
[B][COLOR="red"]Rip Info[/COLOR][/B]
[/CENTER]

[CODE]
General
Ripper                                   : ErSSP
Source                                   : BD @ DusWareHouse!!
Unique ID                                : 233998740934742754342138800881782366707 (0xB00A84A9827DBE43BFD9421A0DFE21F3)
Complete name                            : C:\Users\ErSSP\uTDownloads\Murder 2 - 2011 - 1080p Blu Ray-muxed.mkv
Format                                   : Matroska
Format version                           : Version 2
File size                                : 2.00 GiB
Duration                                 : 2h 7mn
Overall bit rate                         : 2 250 Kbps
Encoded date                             : UTC 2011-09-13 10:05:34
Writing application                      : mkvmerge v4.9.1 ('Ich will') built on Jul 11 2011 23:53:15
Writing library                          : libebml v1.2.1 + libmatroska v1.1.1

Video
ID                                       : 1
Format                                   : AVC
Format/Info                              : Advanced Video Codec
Format profile                           : High@L3.1
Format settings, CABAC                   : Yes
Format settings, ReFrames                : 4 frames
Codec ID                                 : V_MPEG4/ISO/AVC
Duration                                 : 2h 7mn
Bit rate                                 : 1 800 Kbps
Width                                    : 1 280 pixels
Height                                   : 544 pixels
Display aspect ratio                     : 2.35:1
Frame rate                               : 24.000 fps
Color space                              : YUV
Chroma subsampling                       : 4:2:0
Bit depth                                : 8 bits
Scan type                                : Progressive
Bits/(Pixel*Frame)                       : 0.108
Stream size                              : 1.56 GiB (78%)
Writing library                          : x264 core 116 r2074 2641b9e
Encoding settings                        : cabac=1 / ref=3 / deblock=1:0:0 / analyse=0x3:0x113 / me=hex / subme=7 / psy=1 / psy_rd=1.00:0.00 / mixed_ref=1 / me_range=16 / chroma_me=1 / trellis=1 / 8x8dct=1 / cqm=0 / deadzone=21,11 / fast_pskip=1 / chroma_qp_offset=-2 / threads=3 / sliced_threads=0 / nr=0 / decimate=1 / interlaced=0 / bluray_compat=0 / constrained_intra=0 / bframes=3 / b_pyramid=2 / b_adapt=1 / b_bias=0 / direct=1 / weightb=1 / open_gop=0 / weightp=2 / keyint=250 / keyint_min=24 / scenecut=40 / intra_refresh=0 / rc_lookahead=40 / rc=2pass / mbtree=1 / bitrate=1800 / ratetol=1.0 / qcomp=0.60 / qpmin=0 / qpmax=69 / qpstep=4 / cplxblur=20.0 / qblur=0.5 / ip_ratio=1.40 / aq=1:1.00
Language                                 : English

Audio
ID                                       : 2
Format                                   : AC-3
Format/Info                              : Audio Coding 3
Mode extension                           : CM (complete main)
Codec ID                                 : A_AC3
Duration                                 : 2h 7mn
Bit rate mode                            : Constant
Bit rate                                 : 448 Kbps
Channel(s)                               : 6 channels
Channel positions                        : Front: L C R, Side: L R, LFE
Sampling rate                            : 48.0 KHz
Bit depth                                : 16 bits
Compression mode                         : Lossy
Stream size                              : 408 MiB (20%)
Language                                 : Hindi


[/CODE]

[CENTER]
[B][COLOR="red"]Screens[/COLOR][/B]
[url=http://www.imagehost.co.za/share-BE7E_4E6F2B87.html][img]http://www.imagehost.co.za/image-BE7E_4E6F2B87.jpg[/img][/url]
[url=http://www.imagehost.co.za/share-0A46_4E6F2B87.html][img]http://www.imagehost.co.za/image-0A46_4E6F2B87.jpg[/img][/url]
[url=http://www.imagehost.co.za/share-70AA_4E6F2B87.html][img]http://www.imagehost.co.za/image-70AA_4E6F2B87.jpg[/img][/url]
[url=http://www.imagehost.co.za/share-5BF0_4E6F2B87.html][img]http://www.imagehost.co.za/image-5BF0_4E6F2B87.jpg[/img][/url]
[url=http://www.imagehost.co.za/share-8F5F_4E6F2B87.html][img]http://www.imagehost.co.za/image-8F5F_4E6F2B87.jpg[/img][/url]
[url=http://www.imagehost.co.za/share-5F3F_4E6F2C08.html][img]http://www.imagehost.co.za/image-5F3F_4E6F2C08.jpg[/img][/url]
[url=http://www.imagehost.co.za/share-D30D_4E6F2C08.html][img]http://www.imagehost.co.za/image-D30D_4E6F2C08.jpg[/img][/url]
[url=http://www.imagehost.co.za/share-14D0_4E6F2C08.html][img]http://www.imagehost.co.za/image-14D0_4E6F2C08.jpg[/img][/url]
[url=http://www.imagehost.co.za/share-8CAC_4E6F2C08.html][img]http://www.imagehost.co.za/image-8CAC_4E6F2C08.jpg[/img][/url]




[B][COLOR="navy"]-- Credits To Team DUS --[/COLOR][/B]
[/CENTER]

Remember to register FREE at [url]http://www.BollyTorrent.com/register.php[/url] to avail more exclusives like this one. For time being BollyTorrent.com is completely FreeLeech Forum. So hurry up......!!!!

============== For More Exclusives Visit BollyTorrent.com ================